<svg width="64" height="64" viewBox="0 0 64 64" fill="none" xmlns="http://www.w3.org/2000/svg">
<g id="Group 5370">
<circle id="Ellipse 1" cx="32" cy="32" r="32" fill="#FF0000"/>
<g id="Group 5368">
<g id="layer1">
<g id="Group 5369">
<path id="path929" d="M39.0747 15.0248C41.752 21.9417 44.3556 29.6538 39.7894 35.8695C34.2278 29.928 31.9659 27.4745 31.9659 27.4745L31.3868 27.966C33.4547 25.8792 35.5285 23.8486 36.1785 23.2141C36.3073 23.0523 36.1885 23.0004 36.0629 22.9895L30.8002 22.6345C30.3919 22.555 30.2692 22.6248 30.0559 22.8452C29.2696 23.6582 26.6799 26.3429 24.5948 28.5902C24.4344 28.7631 24.4815 29.1297 24.6552 29.2897C25.7924 30.3373 26.4312 30.8537 27.3527 31.6575C27.4874 31.775 27.7682 31.7233 27.889 31.592C28.6588 30.7556 29.6644 29.7162 30.7074 28.6561C30.8088 28.7766 33.1654 31.5729 38.2583 37.5152C31.9982 42.9634 24.9439 40.2712 19.5403 34.5802C19.5403 34.5802 19.2901 34.6005 19.1806 34.6546C19.0244 34.7316 18.8701 34.8442 18.7875 34.9956C18.7324 35.0966 18.7399 35.3361 18.7399 35.3361C18.7987 35.4198 18.8584 35.502 18.9178 35.5848C18.8484 35.6013 18.2688 35.7417 18.0132 35.9156C17.8836 36.0038 17.7039 36.2671 17.7039 36.2671C17.7039 36.2671 14.1414 40.2792 12.2559 42.458C12.115 42.6208 11.9695 42.8827 12.0694 43.0725C12.6283 44.1338 13.2529 44.6982 14.1192 44.7948C14.3095 44.816 14.5783 44.9133 14.6927 44.7624C17.6222 40.8967 17.8453 40.5889 20.0191 37.5969C20.0844 37.507 20.1423 37.3364 20.1749 37.23C23.4889 41.2765 28.2753 43.8846 33.2204 44.2697C36.2091 44.5025 39.5615 43.2318 41.6879 41.2887C43.1718 43.0156 44.0486 44.2552 45.8848 46.3839C46.2681 46.8588 46.9073 47.0452 47.4482 46.9312C47.8972 46.8366 48.2844 46.4176 48.4423 45.9938C48.5619 45.673 48.6032 45.2619 48.3342 44.9745C46.1582 42.661 45.0305 41.3092 43.3373 39.5037C45.1383 37.1603 45.9643 33.6547 45.7467 30.5868C45.3483 24.9712 43.0568 19.2923 39.0747 15.0248ZM37.2135 16.1325L35.8869 17.0677L34.6474 16.2046L35.1229 17.5663L33.7342 18.4347L35.3549 18.3412L35.736 19.7409L36.262 18.3213L37.8864 18.318L36.5908 17.5343L37.2135 16.1325Z" fill="white"/>
<path id="path929 (Stroke)" fill-rule="evenodd" clip-rule="evenodd" d="M39.0407 15.0379L39.1011 15C43.0894 19.274 45.3839 24.9609 45.7828 30.5842C46.0002 33.6483 45.1793 37.1495 43.3847 39.5013C44.1563 40.3245 44.8112 41.0543 45.503 41.8252C45.5622 41.8913 45.6218 41.9576 45.6817 42.0243C46.4472 42.8771 47.2729 43.7932 48.3606 44.9496L48.3606 44.9497C48.6442 45.2526 48.5972 45.6817 48.4763 46.0064C48.3153 46.4383 47.9201 46.8688 47.4557 46.9667C46.9027 47.0832 46.2495 46.8932 45.8569 46.4071C44.9385 45.3425 44.26 44.5001 43.6258 43.7083C43.5841 43.6562 43.5425 43.6043 43.5011 43.5525C42.9201 42.8269 42.3661 42.1349 41.6846 41.3407C39.5501 43.2758 36.204 44.5385 33.2175 44.3059C28.2828 43.9216 23.5073 41.3287 20.1892 37.3046C20.1759 37.345 20.1603 37.3894 20.1429 37.433C20.116 37.5009 20.0838 37.5695 20.0484 37.6182L20.0249 37.6506C17.8728 40.6127 17.6406 40.9324 14.7216 44.7843C14.6523 44.8756 14.5389 44.8876 14.4316 44.8793C14.3769 44.8751 14.3202 44.8654 14.2665 44.8556C14.2598 44.8544 14.2531 44.8532 14.2465 44.852C14.1996 44.8434 14.1555 44.8354 14.1151 44.8309C13.2315 44.7323 12.5986 44.1556 12.0372 43.0894C11.9803 42.9813 11.9951 42.8563 12.0383 42.7422C12.0818 42.6276 12.1561 42.5178 12.2284 42.4342C13.1713 41.3447 14.5334 39.7968 15.6597 38.5214C16.2228 37.8837 16.7271 37.3141 17.0905 36.9039C17.2723 36.6988 17.4188 36.5336 17.5199 36.4196C17.5704 36.3627 17.6096 36.3185 17.6362 36.2886L17.6752 36.2447L17.676 36.2435C17.6768 36.2422 17.6779 36.2407 17.6792 36.2388C17.6801 36.2376 17.681 36.2362 17.6821 36.2347C17.6873 36.2272 17.695 36.2165 17.7045 36.2033C17.7236 36.1769 17.7505 36.1408 17.7815 36.1018C17.8425 36.0251 17.9228 35.9331 17.9927 35.8856C18.1253 35.7953 18.3387 35.7155 18.5243 35.6566C18.6619 35.6129 18.7867 35.58 18.8569 35.5623C18.8489 35.5512 18.8409 35.54 18.8328 35.5289C18.7919 35.4719 18.7507 35.4148 18.7101 35.357L18.7038 35.3481L18.7035 35.3372L18.7398 35.3361C18.7035 35.3372 18.7035 35.3372 18.7035 35.3372L18.7035 35.3372L18.7035 35.337L18.7035 35.3364L18.7034 35.3342C18.7034 35.3323 18.7033 35.3296 18.7033 35.3261C18.7032 35.3192 18.7031 35.3092 18.7032 35.2969C18.7034 35.2723 18.7042 35.2384 18.7067 35.2012C18.7093 35.1641 18.7137 35.1231 18.7211 35.0846C18.7284 35.0465 18.7391 35.0083 18.7555 34.9782C18.8433 34.8174 19.0053 34.7006 19.1645 34.622C19.2248 34.5922 19.3199 34.573 19.3959 34.5612C19.4347 34.5552 19.4699 34.5509 19.4955 34.5481C19.5083 34.5467 19.5187 34.5457 19.5259 34.545C19.5295 34.5447 19.5323 34.5444 19.5342 34.5443L19.5371 34.544L19.5372 34.544L19.5373 34.544C19.5373 34.544 19.5373 34.544 19.5402 34.5802L19.5373 34.544L19.5546 34.5426L19.5666 34.5552C22.2654 37.3975 25.3738 39.4881 28.5858 40.1894C31.7865 40.8883 35.0935 40.2085 38.2072 37.5114C33.3494 31.8433 30.9886 29.0462 30.7052 28.71C29.6724 29.7602 28.6781 30.7881 27.9156 31.6166C27.8482 31.6899 27.7392 31.7385 27.6311 31.754C27.5235 31.7694 27.4072 31.7533 27.3288 31.6849C27.0503 31.442 26.7975 31.2252 26.5489 31.012C25.9755 30.5202 25.4241 30.0474 24.6305 29.3164C24.5354 29.2288 24.4776 29.088 24.4635 28.9484C24.4495 28.8092 24.4783 28.6623 24.5682 28.5655C26.6535 26.3179 29.2434 23.6329 30.0298 22.82C30.1368 22.7093 30.2261 22.6309 30.3437 22.5928C30.4606 22.555 30.6002 22.5587 30.8048 22.5984L36.0657 22.9533L36.066 22.9533C36.0991 22.9562 36.1331 22.9619 36.1635 22.972C36.1934 22.982 36.2231 22.9974 36.2437 23.0218C36.2657 23.0477 36.2749 23.0808 36.2681 23.1187C36.2616 23.1549 36.2408 23.194 36.2068 23.2367L36.2054 23.2385L36.2038 23.2401C35.6126 23.8172 33.8435 25.5493 31.9724 27.428L31.9925 27.4499L31.9658 27.4745C31.9925 27.4499 31.9925 27.4498 31.9925 27.4499L31.9926 27.45L31.9929 27.4503L32.0193 27.4789C32.0296 27.49 32.0429 27.5045 32.0593 27.5222L32.1005 27.5669C32.1732 27.6455 32.2833 27.7646 32.4328 27.926C32.7317 28.2488 33.1882 28.7412 33.8186 29.4192C35.0747 30.7704 37.0211 32.8589 39.7859 35.8127C42.04 32.7233 42.5248 29.2642 42.1123 25.7143C41.6981 22.1498 40.3795 18.4965 39.0407 15.0379ZM31.9628 27.5247L31.4102 27.9936L31.361 27.9404C33.4273 25.8552 35.4996 23.8261 36.1514 23.1898C36.1808 23.1525 36.1932 23.125 36.1966 23.1059C36.1998 23.0882 36.1957 23.0773 36.1883 23.0687C36.1797 23.0585 36.1641 23.0487 36.1405 23.0409C36.1174 23.0332 36.0896 23.0283 36.0601 23.0257C36.06 23.0256 36.0598 23.0256 36.0597 23.0256L30.7954 22.6705L30.7932 22.6701C30.5907 22.6307 30.4655 22.6297 30.366 22.6619C30.2669 22.694 30.1882 22.7606 30.082 22.8705C29.2956 23.6834 26.7062 26.3679 24.6214 28.6149C24.5508 28.6909 24.5229 28.8138 24.5357 28.9411C24.5485 29.0682 24.6011 29.1906 24.6797 29.263C25.4723 29.9931 26.0223 30.4647 26.5953 30.9561C26.8441 31.1695 27.0972 31.3866 27.3765 31.6302C27.4328 31.6792 27.5242 31.696 27.6208 31.6821C27.717 31.6683 27.8089 31.6254 27.8622 31.5674C28.6324 30.7305 29.6384 29.6908 30.6814 28.6306L30.7094 28.6022L30.7351 28.6327C30.8364 28.7531 33.193 31.5493 38.2858 37.4916L38.3093 37.5189L38.2821 37.5426C35.1436 40.274 31.8033 40.9662 28.5703 40.2603C25.344 39.5559 22.228 37.46 19.526 34.6179C19.5199 34.6185 19.5122 34.6193 19.5034 34.6203C19.4786 34.623 19.4445 34.6272 19.407 34.633C19.3305 34.6448 19.2458 34.6628 19.1966 34.6871C19.0434 34.7627 18.8967 34.871 18.8193 35.013C18.8082 35.0334 18.7992 35.063 18.7924 35.0983C18.7857 35.133 18.7816 35.1708 18.7792 35.2062C18.7767 35.2415 18.7759 35.2738 18.7758 35.2973C18.7757 35.3086 18.7758 35.3178 18.7759 35.3243C18.8142 35.3786 18.8528 35.4323 18.8915 35.4862C18.9101 35.5119 18.9286 35.5377 18.9472 35.5637L18.9787 35.6076L18.9261 35.6201C18.8918 35.6283 18.7305 35.6672 18.5462 35.7258C18.3607 35.7846 18.1565 35.8619 18.0336 35.9456C17.9739 35.9862 17.8996 36.07 17.8383 36.147C17.8081 36.1849 17.782 36.2201 17.7633 36.2459C17.754 36.2587 17.7466 36.2692 17.7415 36.2764C17.739 36.28 17.737 36.2829 17.7357 36.2847L17.7342 36.2869L17.7339 36.2874L17.7338 36.2875L17.7325 36.2894L17.7309 36.2912L17.7038 36.2671C17.7309 36.2912 17.7309 36.2912 17.7309 36.2912L17.7308 36.2914L17.6905 36.3368C17.6639 36.3667 17.6247 36.4108 17.5742 36.4678C17.4731 36.5818 17.3266 36.747 17.1449 36.9521C16.7814 37.3622 16.2772 37.9318 15.7141 38.5695C14.5878 39.8449 13.2259 41.3925 12.2833 42.4817C12.2147 42.561 12.1458 42.6635 12.1062 42.768C12.0664 42.873 12.0584 42.9738 12.1015 43.0556C12.6578 44.112 13.2741 44.664 14.1232 44.7587C14.1662 44.7635 14.213 44.7721 14.2596 44.7806C14.2662 44.7818 14.2728 44.783 14.2794 44.7842C14.3332 44.794 14.3866 44.8031 14.4372 44.807C14.5404 44.8149 14.6186 44.8 14.6637 44.7404C17.5823 40.8892 17.8144 40.5697 19.9658 37.6085L19.9897 37.5756C20.0196 37.5344 20.049 37.4727 20.0755 37.4062C20.1016 37.3403 20.1239 37.2721 20.1401 37.2193L20.1599 37.1545L20.2029 37.207C23.5111 41.2464 28.2887 43.8492 33.2231 44.2335C36.2011 44.4655 39.5438 43.1987 41.6634 41.2619L41.691 41.2367L41.7154 41.2651C42.4089 42.0721 42.9699 42.7728 43.5576 43.507C43.5991 43.5588 43.6407 43.6107 43.6825 43.6629C44.3166 44.4547 44.9946 45.2963 45.9122 46.3602L45.9126 46.3606L45.913 46.3611C46.287 46.8245 46.912 47.0071 47.4407 46.8957C47.8741 46.8043 48.2533 46.3968 48.4082 45.9811C48.5263 45.6642 48.5621 45.2711 48.3076 44.9993C47.2194 43.8423 46.3932 42.9257 45.6276 42.0728C45.5678 42.0062 45.5083 41.9399 45.4491 41.8739C44.7509 41.0959 44.0909 40.3604 43.3107 39.5285L43.2896 39.506L43.3084 39.4816C45.1029 37.1467 45.9275 33.6504 45.7104 30.5894C45.3169 25.0423 43.0736 19.4336 39.1769 15.1888C40.4919 18.5948 41.7761 22.1921 42.1844 25.7059C42.5999 29.2817 42.1087 32.7737 39.8186 35.891L39.7927 35.9262L39.7629 35.8943C36.982 32.9235 35.0261 30.8247 33.7654 29.4686C33.135 28.7906 32.6785 28.2982 32.3795 27.9753C32.23 27.8139 32.1199 27.6948 32.0472 27.6161C32.0108 27.5768 31.9838 27.5475 31.9659 27.5281L31.9628 27.5247ZM37.3 16.027L36.6369 17.5197L38.016 18.3541L36.2872 18.3575L35.7306 19.8597L35.3275 18.3792L33.7363 18.4709L33.7149 18.4039L35.079 17.5509L34.5761 16.1108L35.8867 17.0233L37.3 16.027ZM37.1269 16.2379L35.8869 17.112L34.7185 16.2984L35.1667 17.5817L33.8736 18.3903L35.3821 18.3033L35.7412 19.6222L36.2367 18.285L37.7566 18.282L36.5446 17.5487L37.1269 16.2379Z" fill="white"/>
</g>
</g>
</g>
</g>
</svg>
