<svg width="64" height="64" viewBox="0 0 64 64" fill="none" xmlns="http://www.w3.org/2000/svg">
<g id="Indian_National_Congress_hand_logo 1" clip-path="url(#clip0_12_627)">
<path id="Vector" d="M32.0187 64.0689C49.7299 64.0689 64.0876 49.7112 64.0876 32C64.0876 14.2888 49.7299 -0.0690002 32.0187 -0.0690002C14.3075 -0.0690002 -0.050293 14.2888 -0.050293 32C-0.050293 49.7112 14.3075 64.0689 32.0187 64.0689Z" fill="white"/>
<path id="Vector_2" d="M32.0186 0.80954C18.5331 0.80954 7.05265 9.39263 2.74097 21.3938H61.2962C56.9845 9.39271 45.5042 0.80954 32.0186 0.80954Z" fill="#F37022"/>
<path id="Vector_3" d="M32.0185 63.0123C45.518 63.0123 57.0082 54.4114 61.3094 42.3909H2.72754C7.0288 54.4114 18.519 63.0123 32.0185 63.0123Z" fill="#0F823F"/>
<path id="Vector_4" d="M22.2387 58.3343L24.2254 52.7919L22.1447 51.0708L20.5613 47.1379L19.4375 40.4465V36.3093L19.6417 32.9893L20.6633 30.4863C20.6633 30.4863 20.3568 26.2468 20.4079 24.8166L20.459 23.3864L21.6848 14.5498L22.6043 12.8132L23.9325 11.6896L25.1582 11.6384L25.669 11.4341C25.669 11.4341 25.8222 10.3614 26.333 9.69751L26.8438 9.03331L28.1718 8.21602L30.0107 8.76247L32.1599 5.96324L33.9838 5.43964L35.4827 6.64954L35.898 8.27497L37.9387 7.84135L39.239 8.45538L39.9613 10.0627L41.3337 25.1057L41.9298 30.1081L43.9883 26.2072L46.0471 24.4376L48.4309 24.3291L49.5506 26.0268L47.4556 42.027L46.2637 45.6387L41.5977 51.4908L39.8709 55.7154L39.8874 57.9417L22.4038 58.5744L22.2387 58.3342L22.2387 58.3343Z" fill="white"/>
<path id="Vector_5" d="M22.2386 58.3343C22.1449 58.065 22.0007 57.0601 21.9181 56.1013C21.5472 51.7847 21.5226 51.6068 21.2265 51.1027C20.784 50.3495 20.114 48.2159 19.7008 46.244C18.585 40.9189 18.5612 35.1514 19.6404 31.6652C19.8556 30.9704 19.9647 30.1803 19.9978 29.0759C20.0952 25.8186 20.3483 21.3885 20.4886 20.4799C20.5685 19.9634 20.7273 18.6523 20.8414 17.5666C21.2505 13.6734 22.3844 11.8061 24.6997 11.2128C25.3764 11.0392 25.4475 10.9768 25.7517 10.2891C25.9311 9.88349 26.3187 9.31783 26.613 9.03188C27.4267 8.24138 27.9874 8.03098 29.177 8.06968L30.2033 8.10287L30.4925 7.53752C31.4135 5.73741 32.9179 4.88573 34.4481 5.29754C35.1045 5.47438 36.0409 6.37942 36.3548 7.14082C36.54 7.58977 36.5582 7.59706 37.3048 7.52003C38.3068 7.41657 38.9869 7.65794 39.5974 8.33352C40.5243 9.35929 40.6792 10.0661 41.0044 14.7475L42.0499 28.2268C42.2339 28.4107 42.7359 27.8061 43.1904 26.8542C43.7476 25.6859 44.7891 24.6267 45.8752 24.1232C47.4392 23.3978 49.1663 23.7097 49.7411 24.8209C50.0329 25.3851 50.0109 26.7706 49.6767 28.8981C49.5238 29.8702 49.2597 32.1281 49.0894 33.9159C48.484 40.2689 47.8719 43.0864 46.4691 45.9791C45.7851 47.3893 45.1352 48.2629 43.1526 50.4371C42.3121 51.3592 41.4345 52.4559 41.2029 52.8749C40.8024 53.5981 40.7789 53.7376 40.7345 55.6587C40.6817 57.9532 40.6391 58.0426 39.6021 58.0426C38.8102 58.0426 38.6188 57.7333 38.7518 56.6679L38.8471 55.9063L37.5745 55.5142C36.1583 55.0781 35.9172 54.9372 36.3507 54.7995C36.5127 54.7481 36.8564 54.4653 37.1146 54.1713C37.5367 53.6908 37.556 53.6312 37.3071 53.5833C37.1549 53.5541 36.6006 53.6111 36.0752 53.7103C35.0576 53.9024 34.2683 53.7691 33.9172 53.3463C33.5561 52.9111 33.9047 52.8162 35.4898 52.9193L37.0305 53.0189L38.4201 52.2961C42.8675 49.9838 45.7585 46.3666 46.9054 41.68C47.3271 39.9577 48.5977 29.6491 48.4461 29.1803C48.402 29.0436 48.1705 28.8208 47.9318 28.6855C47.3613 28.3617 47.3842 28.1907 48.0146 28.0722C48.425 27.9955 48.5736 27.874 48.7368 27.4839C49.0269 26.7893 48.7681 25.6285 48.1953 25.056C47.8283 24.689 47.6927 24.6428 47.1605 24.703C45.2409 24.9193 43.8944 26.527 43.1412 29.5025L42.8185 30.7771L43.0762 32.8452C43.2182 33.9831 43.2919 34.9819 43.2403 35.0649C43.0749 35.3328 42.7931 35.2271 42.4564 34.7716C42.1349 34.3371 42.1213 34.333 41.8321 34.5912C41.67 34.7364 41.0957 35.769 40.5569 36.8861C40.0177 38.0029 39.475 39.0013 39.3507 39.1042C39.176 39.2493 39.0201 39.2555 38.6643 39.1315C38.0915 38.9316 37.8053 39.1482 37.5264 39.9931C37.4206 40.314 37.2806 40.6094 37.215 40.6498C37.0587 40.7462 37.0685 39.3386 37.2288 38.6475C37.3714 38.0336 37.297 37.9964 36.6194 38.3408C34.6272 39.3532 31.1689 43.2723 30.3097 45.4913C29.6824 47.1111 29.5575 47.352 29.3437 47.352C29.0774 47.352 29.1011 47.0542 29.4347 46.2073C29.6199 45.7378 29.6672 45.4532 29.57 45.3933C29.3882 45.2808 28.9003 45.7004 28.783 46.0707C28.6933 46.3531 28.2834 46.4512 28.2834 46.1905C28.2834 45.5763 29.7802 43.5951 30.6709 43.03C31.0178 42.8101 31.5744 42.2784 31.9078 41.8488C32.2411 41.4191 33.2369 40.3522 34.1203 39.4781C35.8053 37.8108 37.4869 36.6866 38.8009 36.3491C39.5362 36.1605 39.8881 35.7473 40.6246 34.2091C41.0943 33.2273 41.1411 33.0177 41.1368 31.8975C41.1265 29.0456 40.5954 27.2352 39.6354 26.7797C39.0075 26.4816 37.7789 26.4839 35.8367 26.7864C34.4152 27.0079 34.2944 27.0079 34.1324 26.7864C34.0019 26.6079 33.7268 26.5483 33.035 26.5489C31.536 26.55 31.1469 26.7284 29.7477 28.0544C29.0513 28.7141 28.3384 29.3308 28.1632 29.4244C27.8544 29.5897 27.8474 29.5777 27.9349 29.0298C28.0602 28.2461 27.8212 27.8482 27.2246 27.8482C26.7497 27.8482 26.1177 28.1923 24.3597 29.4082C23.4226 30.0564 22.8805 30.1507 22.6062 29.7126C22.3 29.223 22.6051 28.7725 23.55 28.3193C25.0569 27.5964 24.9651 27.9261 25.0014 23.1136C25.0187 20.8056 24.9943 18.8782 24.9472 18.8305C24.9001 18.7829 24.5829 18.8417 24.2427 18.9617C23.469 19.2347 22.9381 19.2424 22.9381 18.9808C22.9381 18.6541 23.2528 18.499 24.1301 18.3927L24.9608 18.2923V15.5898C24.9608 12.6232 24.8685 12.2451 24.1441 12.2451C22.8387 12.2451 21.7402 14.518 21.4906 17.735C21.4196 18.6489 21.2617 19.8191 21.1392 20.3355C20.85 21.5569 20.7519 29.1683 21.0129 30.1432C21.168 30.7224 21.1532 30.8216 20.8403 31.2988C20.2089 32.2625 19.8852 33.7834 19.7995 36.1914C19.7104 38.693 19.6376 38.5701 20.9446 38.1202C22.5522 37.5672 22.1853 38.4546 20.5283 39.1274L19.7184 39.4561L19.8081 41.0563C20.0647 45.629 21.4417 49.8163 23.3649 51.8722L24.225 52.7917L23.8496 53.7196C23.6431 54.2298 23.2813 55.4599 23.0456 56.4532C22.4615 58.9132 22.4499 58.9408 22.2384 58.3342L22.2386 58.3343ZM27.4627 26.4897C27.9496 26.1222 29.2508 25.6812 29.8492 25.6812H30.2064L30.1071 21.7445L30.0487 16.7964C30.1412 14.5074 29.9845 10.0044 29.7995 9.64472C29.4818 9.02719 29.0235 8.71251 28.4414 8.71251C27.3386 8.71251 26.3921 9.78561 26.1209 11.3435C26.0258 11.8884 25.9136 14.6356 25.8655 17.5901C25.7253 26.2149 25.7218 26.0046 26.0115 26.4466C26.3354 26.9403 26.8456 26.9557 27.4626 26.4898V26.4898L27.4627 26.4897ZM27.3237 22.6135C27.2008 22.4145 27.555 22.2187 28.0429 22.2162C28.3023 22.2145 28.4307 22.2789 28.3933 22.3909C28.3173 22.619 27.4399 22.8015 27.3237 22.6135ZM27.3686 15.7954C27.258 15.507 27.6129 15.2545 28.1661 15.2287C28.8244 15.1983 28.8961 15.6222 28.2695 15.8404C27.6585 16.0535 27.4641 16.0438 27.3687 15.7954H27.3686ZM34.3514 25.537C35.3658 24.8146 35.7803 22.8505 35.5244 19.9781C35.4358 18.9824 35.3233 15.7462 35.2747 12.7866C35.1867 7.43481 35.1842 7.40258 34.8416 6.86782C34.4039 6.18449 33.7573 5.83744 33.1646 5.96769C32.5288 6.10731 31.551 7.07138 31.1533 7.95067L30.812 8.70604L30.7929 16.2184C30.7726 24.2098 30.7745 24.235 31.4582 24.4522C31.6934 24.5269 31.751 24.6692 31.751 25.1757C31.751 25.7513 31.7859 25.8126 32.1485 25.8741C32.9673 26.0132 33.8782 25.8736 34.3514 25.5369V25.537ZM32.6177 20.5672C32.6177 20.3343 32.9254 20.1905 33.4239 20.1905C33.817 20.1905 33.904 20.5427 33.5449 20.6808C33.1332 20.8388 32.6177 20.7757 32.6177 20.5672ZM32.1165 14.8521C31.8829 14.474 32.6963 14.0535 33.3736 14.2023C33.6967 14.2732 33.7801 14.3635 33.7458 14.6055C33.7078 14.8719 33.593 14.9234 32.9557 14.9604C32.5429 14.9843 32.1683 14.936 32.1165 14.8521ZM39.855 25.4413C40.7959 25.0648 40.8777 24.7213 40.6987 21.8979C40.4611 18.1467 39.872 12.1214 39.6312 10.9765C39.2473 9.15111 38.6628 8.34387 37.7252 8.34387C37.1903 8.34387 36.4896 8.87008 36.1157 9.55288C35.8973 9.95211 35.8721 10.446 35.9014 13.7615C35.9197 15.8274 36.0092 18.4603 36.1 19.6125C36.2184 21.1136 36.222 22.0082 36.1127 22.7688C36.0288 23.3524 35.994 23.9185 36.0355 24.0263C36.0769 24.1342 36.3334 24.3538 36.6058 24.5142C36.8782 24.6747 37.1604 24.9636 37.2337 25.156C37.307 25.3484 37.4521 25.5398 37.5565 25.5814C37.9714 25.7476 39.2905 25.667 39.8549 25.4413L39.855 25.4411L39.855 25.4413ZM37.583 19.9768C37.5269 19.8305 37.5707 19.6754 37.6893 19.6002C38.0103 19.3969 38.5424 19.448 38.6355 19.691C38.7449 19.9758 38.6913 20.0231 38.1352 20.1343C37.7814 20.2051 37.657 20.1699 37.583 19.9768H37.583ZM37.2408 14.1492C37.2408 13.9044 37.6518 13.6662 37.9912 13.7143C38.5516 13.7938 38.3945 14.1891 37.7827 14.2399C37.4846 14.2645 37.2409 14.2237 37.2409 14.1492H37.2408ZM24.9359 57.4285C24.9225 57.3292 24.9055 56.8577 24.8982 56.381C24.8909 55.9044 24.8298 55.2063 24.7623 54.83L24.6394 54.1458L25.3418 54.3588C26.1398 54.601 26.9265 54.6393 27.0486 54.4418C27.0939 54.3682 26.9263 54.1626 26.6764 53.9845C26.2586 53.6871 26.2422 53.6458 26.4733 53.4769C26.7272 53.2913 29.277 52.6541 30.4143 52.4922C30.8779 52.4261 31.0285 52.4527 31.0285 52.6007C31.0285 52.8684 30.615 53.2211 30.0003 53.4777C29.3171 53.7633 29.0185 54.1141 29.304 54.2957C29.4182 54.3683 29.5907 54.3988 29.6874 54.3631C29.7842 54.3275 29.9028 54.3621 29.9508 54.4403C29.9988 54.5175 29.8118 54.6757 29.5352 54.7912C29.2587 54.9067 28.8802 55.1859 28.6942 55.4112C28.5069 55.6382 27.9211 56.0016 27.3817 56.2254C26.7935 56.4691 26.2373 56.8235 25.9776 57.1192C25.5503 57.6057 24.9832 57.774 24.9359 57.4285ZM24.2383 45.5352C24.2383 45.3368 25.9169 43.3839 27.1734 42.1207C28.7057 40.5804 30.5236 39.1151 32.9268 37.483C34.8132 36.2018 36.6327 35.1374 36.7448 35.2498C36.8138 35.3187 34.6645 37.0596 32.0786 39.029C31.2656 39.6481 29.7429 40.9012 28.6949 41.8137C25.6313 44.4809 24.2383 45.6445 24.2383 45.5352ZM25.3939 36.6042C25.3939 36.5053 27.523 35.173 29.2081 34.218C31.6826 32.8155 35.6998 31.0266 35.9078 31.2345C36.1284 31.4553 30.1991 34.6709 27.561 35.7609L25.9358 36.4367C25.6377 36.5622 25.394 36.6375 25.394 36.6044V36.6042H25.3939ZM22.6634 23.7797C22.3802 23.6751 22.3562 23.6204 22.5118 23.4329C22.7456 23.1514 23.4266 23.2201 23.4855 23.5312C23.5402 23.8196 23.1169 23.9474 22.6634 23.7797Z" fill="black"/>
</g>
<defs>
<clipPath id="clip0_12_627">
<rect width="64" height="64" fill="white"/>
</clipPath>
</defs>
</svg>
